<?xml version="1.0" encoding="utf-8"?>
<!-- Generator: Adobe Illustrator 22.1.0, SVG Export Plug-In . SVG Version: 6.00 Build 0)  -->
<svg version="1.1" id="图层_1" xmlns="http://www.w3.org/2000/svg" xmlns:xlink="http://www.w3.org/1999/xlink" x="0px"
     y="0px"
     width="59.1px" height="59.2px" viewBox="0 0 59.1 59.2" style="enable-background:new 0 0 59.1 59.2;"
     xml:space="preserve">
<style type="text/css">
	.st0{fill:#FFFFFF;}
	.st1{fill:#939393;}
</style>
    <path class="st0" d="M6.2,48.2h5v4c0,2.7,2.2,4.9,4.9,4.9h27.3c2.7,0,4.9-2.2,4.9-4.9v-4h4.4c2.7,0,4.9-2.2,4.9-4.9V16.1
	c0-2.7-2.2-4.9-4.9-4.9h-4.4V5.7c0-2.7-2.2-4.9-4.9-4.9H16.1c-2.7,0-4.9,2.2-4.9,4.9v5.5h-5c-2.7,0-4.9,2.2-4.9,4.9v27.3
	C1.3,46,3.5,48.2,6.2,48.2z"/>
    <path class="st1" d="M6.1,50.1h3v3c0,3.3,2.7,6,6,6h29c3.3,0,6-2.7,6-6v-3h3c3.3,0,6-2.7,6-6v-29c0-3.3-2.7-6-6-6h-3v-3
	c0-3.3-2.7-6-6-6h-29c-3.3,0-6,2.7-6,6v3h-3c-3.3,0-6,2.7-6,6v29C0.1,47.4,2.7,50.1,6.1,50.1z M12.1,6.1c0-1.7,1.3-3,3-3h29
	c1.7,0,3,1.3,3,3v3v3h0v22.2c0,3.4-2.8,6.2-6.3,6.2H18.3c-3.5,0-6.3-2.8-6.3-6.2V11.1h0v-2V6.1z M3.1,15.1c0-1.7,1.3-3,3-3h3h1v22.2
	c0,4.5,3.7,8.2,8.3,8.2h22.4c4.6,0,8.3-3.7,8.3-8.2V12.1h1h3c1.7,0,3,1.3,3,3v29c0,1.7-1.3,3-3,3h-3h-3v3v3c0,1.7-1.3,3-3,3h-29
	c-1.7,0-3-1.3-3-3v-3v-3h-3h-3c-1.7,0-3-1.3-3-3V15.1z"/>
</svg>
