<?xml version="1.0" encoding="utf-8"?>
<!-- Generator: Adobe Illustrator 22.1.0, SVG Export Plug-In . SVG Version: 6.00 Build 0)  -->
<svg version="1.1" id="图层_1" xmlns="http://www.w3.org/2000/svg" xmlns:xlink="http://www.w3.org/1999/xlink" x="0px"
     y="0px"
     width="146.6px" height="146.5px" viewBox="0 0 146.6 146.5" style="enable-background:new 0 0 146.6 146.5;"
     xml:space="preserve"
>
<style type="text/css">
	.st0{fill:#CDCDCD;}
	.st1{fill-rule:evenodd;clip-rule:evenodd;fill:none;}
	.st2{fill:#939393;}
</style>
    <path class="st0" d="M73.7,2.2c-39.4,0-71.4,32-71.4,71.4s32,71.4,71.4,71.4s71.4-32,71.4-71.4S113.1,2.2,73.7,2.2z M74,113.2
	c-21.7,0-39.4-17.6-39.4-39.4S52.2,34.5,74,34.5s39.4,17.6,39.4,39.4S95.7,113.2,74,113.2z"/>
    <path class="st1" d="M73.3,146.2c-40.3,0-73-32.7-73-73c0-40.3,32.7-73,73-73s73,32.7,73,73C146.3,113.6,113.7,146.2,73.3,146.2
	L73.3,146.2z M73.8,36.2c-20.7,0-37.5,16.8-37.5,37.5c0,20.7,16.8,37.5,37.5,37.5s37.5-16.8,37.5-37.5C111.3,53,94.5,36.2,73.8,36.2
	L73.8,36.2z"/>
    <path class="st2" d="M73.3,143.2c38.6,0,70-31.4,70-70c0-38.6-31.4-70-70-70c-38.6,0-70,31.4-70,70C3.3,111.8,34.7,143.2,73.3,143.2
	 M73.8,33.2c22.3,0,40.5,18.2,40.5,40.5c0,22.3-18.2,40.5-40.5,40.5c-22.3,0-40.5-18.2-40.5-40.5C33.3,51.4,51.5,33.2,73.8,33.2
	 M73.3,146.2c-40.3,0-73-32.7-73-73c0-40.3,32.7-73,73-73c40.3,0,73,32.7,73,73C146.3,113.6,113.7,146.2,73.3,146.2L73.3,146.2
	L73.3,146.2z M73.8,36.2c-20.7,0-37.5,16.8-37.5,37.5c0,20.7,16.8,37.5,37.5,37.5c20.7,0,37.5-16.8,37.5-37.5
	C111.3,53,94.5,36.2,73.8,36.2L73.8,36.2L73.8,36.2z"/>
</svg>
