<?xml version="1.0" encoding="utf-8"?>
<!-- Generator: Adobe Illustrator 22.1.0, SVG Export Plug-In . SVG Version: 6.00 Build 0)  -->
<svg version="1.1" id="图层_1" xmlns="http://www.w3.org/2000/svg" xmlns:xlink="http://www.w3.org/1999/xlink" x="0px"
     y="0px"
     width="293px" height="131.1px" viewBox="0 0 293 131.1" style="enable-background:new 0 0 293 131.1;"
     xml:space="preserve">
<style type="text/css">
	.st0{fill:#CDCDCD;}
	.st1{fill-rule:evenodd;clip-rule:evenodd;fill:none;}
	.st2{fill:#939393;}
</style>
    <path class="st0" d="M227,1.5H65.7C30.6,1.5,2.1,30,2.1,65.1v0c0,35.1,28.5,63.6,63.6,63.6H227c35.1,0,63.6-28.5,63.6-63.6v0
	C290.6,30,262.1,1.5,227,1.5z M260.6,65.2c0,20.3-16.5,36.7-36.7,36.7h-153c-20.3,0-36.7-16.5-36.7-36.7v0
	c0-20.3,16.5-36.7,36.7-36.7h153C244.1,28.5,260.6,44.9,260.6,65.2L260.6,65.2z"/>
    <path class="st1" d="M227.6,130.5h-162c-35.9,0-65-29.1-65-65s29.1-65,65-65h162c35.9,0,65,29.1,65,65S263.5,130.5,227.6,130.5
	L227.6,130.5z M224.6,30.5h-154c-19.3,0-35,15.7-35,35s15.7,35,35,35h154c19.3,0,35-15.7,35-35S243.9,30.5,224.6,30.5L224.6,30.5z"
    />
    <path class="st2" d="M227.6,127.5c34.2,0,62-27.8,62-62c0-34.2-27.8-62-62-62h-162c-34.2,0-62,27.8-62,62c0,34.2,27.8,62,62,62
	H227.6 M70.6,27.5h154c21,0,38,17,38,38c0,21-17,38-38,38h-154c-21,0-38-17-38-38C32.6,44.5,49.6,27.5,70.6,27.5 M227.6,130.5h-162
	c-35.9,0-65-29.1-65-65c0-35.9,29.1-65,65-65h162c35.9,0,65,29.1,65,65C292.6,101.4,263.5,130.5,227.6,130.5L227.6,130.5
	L227.6,130.5z M70.6,30.5c-19.3,0-35,15.7-35,35s15.7,35,35,35h154c19.3,0,35-15.7,35-35s-15.7-35-35-35H70.6L70.6,30.5L70.6,30.5z"
    />
</svg>
