<?xml version="1.0" encoding="utf-8"?>
<!-- Generator: Adobe Illustrator 22.1.0, SVG Export Plug-In . SVG Version: 6.00 Build 0)  -->
<svg version="1.1" id="图层_1" xmlns="http://www.w3.org/2000/svg" xmlns:xlink="http://www.w3.org/1999/xlink" x="0px"
     y="0px"
     width="292.7px" height="130.7px" viewBox="0 0 292.7 130.7" style="enable-background:new 0 0 292.7 130.7;"
     xml:space="preserve"
>
<style type="text/css">
	.st0{fill:#CDCDCD;}
	.st1{fill:#939393;}
</style>
    <path class="st0" d="M281.4,128.2H9.9c-4.8,0-8.7-3.9-8.7-8.7V10.6c0-4.8,3.9-8.7,8.7-8.7h271.5c4.8,0,8.7,3.9,8.7,8.7v108.9
	C290.1,124.3,286.2,128.2,281.4,128.2z"/>
    <path class="st1" d="M282.2,127.3c3.9,0,7-3.1,7-7v-110c0-3.9-3.1-7-7-7h-272c-3.9,0-7,3.1-7,7v110c0,3.9,3.1,7,7,7H282.2
	 M282.2,130.3h-272c-5.5,0-10-4.5-10-10v-110c0-5.5,4.5-10,10-10h272c5.5,0,10,4.5,10,10v110C292.2,125.8,287.8,130.3,282.2,130.3
	L282.2,130.3L282.2,130.3z"/>
</svg>
