<?xml version="1.0" encoding="utf-8"?>
<!-- Generator: Adobe Illustrator 22.1.0, SVG Export Plug-In . SVG Version: 6.00 Build 0)  -->
<svg version="1.1" id="图层_1" xmlns="http://www.w3.org/2000/svg" xmlns:xlink="http://www.w3.org/1999/xlink" x="0px"
     y="0px"
     width="293px" height="131.2px" viewBox="0 0 293 131.2" style="enable-background:new 0 0 293 131.2;"
     xml:space="preserve">
<style type="text/css">
	.st0{fill-rule:evenodd;clip-rule:evenodd;fill:#CDCDCD;}
	.st1{fill:#939393;}
</style>
    <path class="st0" d="M228.9,128.7H64.9c-34.7,0-62.8-28.1-62.8-62.8v-0.7c0-34.7,28.1-62.8,62.8-62.8h164.1
	c34.7,0,62.8,28.1,62.8,62.8v0.7C291.8,100.6,263.6,128.7,228.9,128.7z"/>
    <path class="st1" d="M227.8,127.7c34.2,0,62-27.8,62-62s-27.8-62-62-62h-162c-34.2,0-62,27.8-62,62s27.8,62,62,62H227.8
	 M227.8,130.7h-162c-35.9,0-65-29.1-65-65c0-35.9,29.1-65,65-65h162c35.9,0,65,29.1,65,65C292.7,101.6,263.6,130.7,227.8,130.7
	L227.8,130.7L227.8,130.7z"/>
</svg>
